<?xml version="1.0" standalone="no"?>
<!DOCTYPE svg PUBLIC "-//W3C//DTD SVG 20010904//EN"
 "http://www.w3.org/TR/2001/REC-SVG-20010904/DTD/svg10.dtd">
<svg version="1.0" xmlns="http://www.w3.org/2000/svg"
 width="2842.000000pt" height="2842.000000pt" viewBox="0 0 2842.000000 2842.000000"
 preserveAspectRatio="xMidYMid meet">
<metadata>
Created by potrace 1.14, written by Peter Selinger 2001-2017
</metadata>
<g transform="translate(0.000000,2842.000000) scale(0.100000,-0.100000)"
fill="#000000" stroke="none">
<path d="M14102 27964 c-7 -16 -16 -42 -21 -59 -5 -16 -26 -82 -46 -145 -20
-63 -38 -122 -40 -130 -2 -8 -17 -55 -33 -105 -30 -88 -42 -125 -157 -490 -31
-99 -74 -234 -95 -300 -21 -66 -49 -156 -63 -200 -14 -44 -57 -181 -97 -305
-39 -124 -101 -317 -136 -430 -36 -113 -78 -245 -94 -295 -16 -49 -60 -189
-99 -310 -38 -121 -97 -308 -131 -415 -34 -107 -81 -256 -105 -330 -43 -135
-106 -334 -228 -720 -36 -113 -95 -299 -132 -415 -37 -115 -74 -232 -82 -260
-8 -27 -24 -75 -34 -105 -10 -30 -61 -190 -113 -355 -52 -165 -97 -307 -100
-315 -2 -8 -32 -100 -65 -205 -33 -104 -92 -291 -131 -415 -40 -124 -83 -261
-97 -305 -14 -44 -63 -199 -110 -345 -47 -146 -91 -285 -98 -310 -7 -25 -59
-189 -115 -365 -121 -381 -161 -505 -205 -645 -36 -115 -186 -585 -345 -1085
-56 -176 -108 -340 -115 -365 -7 -25 -35 -115 -63 -200 -28 -85 -74 -229 -102
-320 -29 -91 -65 -203 -80 -250 -24 -74 -72 -226 -75 -240 0 -3 -26 -84 -57
-180 -58 -179 -71 -221 -73 -230 -12 -46 -19 -67 -24 -75 -3 -5 -6 -14 -7 -20
-2 -5 -23 -75 -49 -155 -74 -230 -165 -518 -190 -600 -13 -41 -60 -190 -105
-330 -81 -254 -186 -583 -240 -755 -76 -242 -156 -495 -235 -740 -86 -271
-171 -539 -205 -650 -10 -33 -41 -130 -68 -215 -83 -257 -283 -884 -287 -900
-5 -17 -1 -5 -95 -300 -96 -303 -250 -787 -315 -995 -30 -93 -63 -197 -73
-230 -11 -33 -46 -141 -77 -240 -31 -99 -76 -241 -100 -315 -64 -202 -146
-460 -220 -695 -36 -115 -70 -221 -75 -235 -12 -36 -103 -323 -106 -335 -2
-10 -41 -132 -131 -410 -25 -77 -46 -144 -47 -150 -1 -5 -18 -57 -36 -115 -18
-58 -35 -109 -36 -115 -1 -5 -25 -80 -52 -165 -28 -85 -69 -216 -92 -290 -23
-74 -47 -148 -53 -165 -7 -16 -12 -32 -12 -35 -1 -7 -53 -173 -85 -270 -15
-47 -51 -159 -80 -250 -28 -91 -55 -176 -60 -190 -5 -14 -36 -110 -69 -215
-58 -184 -122 -387 -258 -815 -35 -113 -77 -245 -93 -295 -16 -49 -47 -148
-70 -220 -23 -71 -52 -164 -65 -205 -13 -41 -42 -133 -65 -205 -66 -207 -190
-596 -205 -645 -21 -70 -55 -179 -165 -520 -55 -173 -102 -322 -104 -330 -4
-14 -21 -67 -131 -410 -24 -74 -64 -202 -90 -285 -25 -82 -50 -161 -55 -175
-5 -14 -38 -117 -74 -230 -35 -113 -88 -277 -116 -365 -28 -88 -53 -167 -55
-175 -2 -8 -24 -80 -50 -160 -86 -269 -173 -544 -269 -845 -52 -165 -99 -312
-105 -328 -10 -25 -9 -27 7 -18 9 5 40 27 69 48 28 21 138 99 243 173 106 74
198 140 204 145 6 6 31 23 56 40 25 16 47 33 50 36 3 3 32 24 65 47 102 70
181 126 206 145 37 27 837 596 992 705 76 53 144 102 150 107 7 6 35 26 62 45
28 19 52 37 53 42 2 4 8 8 13 8 6 0 15 5 22 11 7 6 59 44 117 84 58 41 110 78
115 82 9 8 121 88 341 243 60 43 481 342 541 385 32 23 214 153 246 175 12 8
112 79 222 157 110 79 208 148 218 155 10 7 67 47 125 89 124 89 888 633 915
651 11 7 74 52 140 100 67 48 143 102 170 120 66 46 85 60 117 86 15 12 31 22
34 22 4 0 29 17 56 38 65 49 69 52 555 397 231 164 508 361 615 437 107 77
281 200 385 274 105 74 206 146 225 160 19 14 121 86 225 160 105 74 222 158
260 185 39 28 171 123 295 210 124 88 257 182 295 210 39 27 122 86 185 131
63 45 117 85 120 89 3 3 129 -81 280 -187 151 -106 282 -198 290 -204 8 -5 65
-45 125 -88 61 -43 256 -181 435 -307 179 -125 357 -251 397 -279 39 -28 80
-57 90 -64 10 -7 99 -69 198 -139 99 -70 243 -171 320 -224 77 -54 145 -102
150 -107 6 -5 24 -17 40 -28 17 -10 32 -21 35 -24 3 -3 59 -43 125 -89 171
-119 242 -169 310 -218 33 -24 92 -65 130 -92 72 -50 347 -243 400 -281 17
-12 122 -86 235 -166 113 -79 214 -150 225 -158 17 -12 284 -200 335 -236 8
-6 89 -63 180 -127 91 -64 248 -175 350 -246 102 -72 203 -143 225 -159 22
-15 74 -51 115 -80 41 -28 79 -56 85 -60 8 -7 290 -206 595 -419 272 -191 376
-264 380 -270 3 -3 10 -8 15 -10 6 -2 84 -56 173 -119 89 -63 215 -152 280
-198 64 -45 126 -89 137 -97 11 -7 184 -129 385 -271 201 -141 430 -303 510
-359 80 -56 226 -159 325 -228 99 -70 185 -130 190 -135 6 -4 46 -33 90 -63
44 -31 127 -89 185 -130 58 -41 134 -95 170 -120 36 -25 120 -85 188 -132 67
-48 125 -87 128 -87 9 0 3 24 -75 280 -40 129 -74 242 -76 250 -2 8 -16 56
-30 105 -15 50 -40 133 -55 185 -16 52 -52 172 -80 265 -28 94 -76 253 -106
355 -30 102 -71 237 -90 300 -20 63 -42 138 -49 165 -8 28 -41 140 -75 250
-33 110 -63 207 -65 216 -2 9 -18 63 -35 119 -17 56 -33 110 -35 119 -2 9 -56
189 -120 401 -63 212 -125 417 -136 455 -12 39 -36 120 -55 180 -18 61 -45
151 -60 200 -57 196 -199 672 -229 770 -51 169 -106 351 -110 365 -4 16 -157
533 -205 690 -16 52 -42 140 -59 195 -262 872 -334 1115 -341 1140 -9 35 -38
133 -115 385 -31 102 -58 192 -60 200 -4 15 -39 133 -96 323 -17 56 -48 161
-69 232 -42 143 -102 341 -252 840 -54 182 -101 337 -103 345 -4 18 -84 285
-125 420 -122 400 -190 642 -184 653 4 6 15 17 23 23 9 7 347 276 751 599 404
323 750 599 769 613 60 48 365 293 386 310 11 9 31 24 45 33 14 10 34 25 45
36 11 10 63 52 115 93 52 41 104 82 115 92 11 10 72 58 135 109 63 50 131 103
150 119 19 15 208 166 420 335 212 168 394 314 405 323 11 9 40 33 65 52 25
19 52 40 60 47 8 7 103 82 210 168 107 86 202 161 210 168 8 7 159 127 335
267 176 140 325 259 331 265 7 5 25 20 40 32 24 18 377 300 434 346 8 7 47 37
85 67 39 30 72 57 75 60 3 3 115 93 250 200 135 107 252 201 260 207 8 7 78
63 155 124 77 61 151 121 165 133 14 11 77 61 140 111 63 49 124 97 135 107
11 9 171 137 355 283 184 147 351 280 370 295 19 16 377 301 795 635 418 334
761 607 762 608 1 1 -2419 1 -5377 1 l-5378 -2 -11 27 c-5 14 -26 76 -47 136
-20 61 -63 187 -96 280 -32 94 -76 222 -98 285 -21 63 -84 248 -140 410 -56
162 -110 320 -120 350 -10 30 -55 161 -100 290 -45 129 -90 260 -100 290 -10
30 -69 201 -130 380 -62 179 -116 336 -120 350 -5 14 -50 144 -100 290 -50
146 -109 317 -130 380 -22 63 -71 207 -110 320 -40 113 -80 230 -90 260 -17
51 -75 221 -352 1025 -60 176 -138 403 -173 505 -35 102 -109 318 -165 480
-167 485 -209 607 -265 770 -29 85 -105 308 -170 495 -64 187 -123 358 -130
380 -7 22 -51 150 -98 285 -46 135 -101 295 -121 355 -21 61 -41 119 -46 130
-5 11 -25 70 -45 130 -21 61 -64 189 -97 285 -34 96 -82 238 -109 315 -47 139
-237 691 -287 835 -14 41 -40 117 -57 169 -31 92 -31 94 -43 65z m-247 -5390
c83 -25 155 -47 160 -48 6 -2 57 -17 115 -35 58 -18 121 -37 140 -43 19 -6 54
-17 76 -25 23 -7 50 -16 60 -18 11 -3 64 -18 119 -35 55 -18 107 -33 115 -35
44 -11 360 -112 364 -116 3 -3 -4 -34 -15 -69 -11 -36 -36 -119 -55 -185 -19
-66 -48 -163 -64 -215 -31 -100 -99 -328 -156 -520 -18 -63 -55 -189 -82 -280
-27 -91 -57 -191 -66 -222 -10 -32 -21 -58 -25 -58 -9 0 -97 27 -331 100 -91
28 -169 53 -175 54 -5 2 -17 6 -25 9 -8 3 -62 20 -120 37 -58 17 -152 46 -210
64 -58 18 -159 50 -225 70 -232 72 -275 88 -269 97 3 5 24 67 46 137 22 70 52
168 68 217 43 136 226 714 243 765 20 61 114 359 122 388 4 15 12 21 23 18 9
-3 85 -26 167 -52z m-710 -3415 c270 -88 567 -185 660 -216 94 -30 173 -59
178 -62 4 -4 -15 -77 -42 -162 -27 -85 -86 -269 -131 -409 -45 -140 -105 -329
-135 -420 -29 -91 -76 -238 -104 -327 -29 -90 -56 -163 -60 -163 -5 0 -84 23
-177 51 -93 28 -182 55 -199 59 -28 8 -149 44 -365 110 -124 38 -414 125 -513
154 -43 13 -83 28 -88 33 -6 6 -5 25 5 54 14 41 324 1097 332 1129 2 8 25 88
51 178 47 160 48 163 73 157 14 -3 246 -78 515 -166z m-894 -3362 l666 -222
-49 -160 c-57 -185 -133 -430 -154 -495 -20 -63 -79 -252 -103 -330 -62 -201
-115 -374 -137 -442 l-25 -77 -52 18 c-29 11 -221 74 -427 141 -675 219 -865
282 -871 289 -4 3 13 67 37 141 302 923 446 1360 448 1360 0 0 301 -101 667
-223z m-1531 -3167 c101 -33 453 -148 815 -265 182 -59 334 -111 339 -115 4
-5 -3 -43 -17 -87 -14 -43 -58 -179 -97 -303 -39 -124 -89 -279 -110 -345 -21
-66 -68 -214 -105 -330 -82 -257 -137 -429 -139 -432 -1 -2 -49 13 -107 31
-57 19 -212 69 -344 111 -382 122 -456 146 -530 170 -38 13 -143 47 -232 75
-90 29 -163 53 -163 54 0 1 47 141 106 312 58 170 106 314 108 319 2 6 5 17 8
25 11 29 48 138 143 420 52 157 99 292 104 300 5 9 12 31 16 50 4 19 11 42 16
52 9 17 5 19 189 -42z m-1203 -3281 c15 -6 35 -12 43 -14 8 -2 197 -64 420
-139 223 -75 493 -166 601 -202 l196 -66 -42 -146 c-24 -81 -77 -266 -120
-412 -42 -146 -102 -350 -132 -455 -30 -104 -66 -228 -80 -275 -13 -47 -29
-103 -35 -125 -6 -22 -14 -43 -17 -47 -8 -8 -7 -8 -601 167 -272 81 -502 148
-510 150 -45 11 -240 72 -245 77 -3 3 9 50 27 104 17 55 32 101 33 104 1 4
221 672 377 1145 37 110 49 145 54 145 1 0 15 -5 31 -11z m-992 -3301 c152
-54 352 -123 770 -268 498 -172 451 -151 447 -192 -1 -18 -15 -73 -31 -123
-16 -49 -48 -151 -71 -225 -23 -74 -49 -155 -57 -180 -8 -25 -16 -52 -18 -60
-2 -8 -13 -42 -24 -75 -31 -96 -82 -259 -85 -270 -2 -5 -5 -17 -9 -25 -3 -8
-17 -55 -32 -105 -15 -49 -30 -97 -33 -105 -3 -8 -6 -19 -8 -25 -2 -9 -69
-220 -80 -254 -3 -9 -8 -10 -17 -3 -6 6 -66 28 -132 50 -66 22 -327 111 -580
197 -253 86 -500 170 -549 186 -48 16 -91 31 -96 34 -4 2 31 118 77 257 46
139 86 260 88 268 2 8 58 182 125 385 67 204 135 413 152 465 36 112 37 113
52 107 6 -2 56 -20 111 -39z"/>
<path d="M15 17681 c-2 -2 44 -42 103 -89 59 -47 109 -88 112 -92 3 -3 25 -21
50 -40 25 -19 47 -37 50 -40 3 -3 88 -73 190 -155 102 -82 187 -152 190 -155
3 -3 25 -21 50 -40 25 -19 56 -44 70 -56 20 -18 353 -288 514 -418 22 -17 103
-83 180 -146 204 -166 327 -267 536 -435 102 -82 187 -152 190 -155 3 -3 39
-32 80 -65 41 -33 77 -62 80 -65 3 -3 75 -61 160 -130 85 -68 157 -127 160
-130 3 -3 25 -21 50 -40 25 -19 47 -37 50 -40 3 -4 77 -64 165 -135 130 -106
376 -305 585 -475 19 -16 186 -151 370 -300 184 -149 353 -286 375 -304 22
-19 175 -143 340 -277 165 -133 345 -279 400 -324 55 -45 235 -191 400 -325
165 -134 314 -255 331 -269 17 -14 40 -33 50 -41 10 -8 55 -44 99 -80 44 -36
87 -70 95 -77 18 -14 139 -113 190 -154 19 -16 116 -94 215 -175 99 -80 189
-153 200 -162 11 -10 65 -53 120 -97 55 -44 113 -92 130 -106 16 -15 53 -44
80 -65 28 -20 52 -40 55 -44 8 -9 571 -465 579 -468 4 -1 46 120 93 270 47
150 116 368 153 483 37 116 68 217 70 225 2 8 19 62 38 120 19 58 74 229 122
380 47 151 104 329 125 395 64 202 155 490 220 695 34 107 71 224 83 260 11
36 22 70 23 75 2 10 150 476 255 805 28 85 52 162 54 170 2 8 12 40 23 70 11
30 20 58 20 63 0 4 26 87 57 185 31 97 65 204 75 237 11 33 40 123 64 200 82
257 124 389 176 555 28 91 59 188 68 215 9 28 17 52 17 55 0 3 10 34 22 70 12
36 49 153 83 260 34 107 75 236 91 285 16 50 29 92 29 95 0 6 -9550 7 -9555 1z"/>
</g>
</svg>
